<svg width="500" height="500" viewBox="0 0 500 500" fill="none" xmlns="http://www.w3.org/2000/svg">
<g clip-path="url(#clip0_2002_25)">
<rect width="500" height="500" rx="100" fill="black"/>
<path d="M250.198 382.536C224.505 382.536 202.112 378.646 183.019 370.868C163.926 362.853 149.075 350.36 138.468 333.389C128.097 316.417 122.911 294.496 122.911 267.624V121.244H193.272V267.624C193.272 278.938 194.922 288.838 198.222 297.324C201.758 305.81 207.651 312.41 215.901 317.124C224.387 321.839 235.819 324.196 250.198 324.196C267.876 324.196 281.784 320.071 291.919 311.821C302.055 303.571 307.123 288.838 307.123 267.624V121.244H377.838V267.624C377.838 291.196 373.36 311.585 364.402 328.792C355.445 346 341.538 359.318 322.68 368.746C303.823 377.939 279.662 382.536 250.198 382.536Z" fill="white"/>
</g>
<defs>
<clipPath id="clip0_2002_25">
<rect width="500" height="500" fill="white"/>
</clipPath>
</defs>
</svg>
