<svg width="150" height="24" viewBox="0 0 150 24" fill="none" xmlns="http://www.w3.org/2000/svg">
<path d="M134.856 17.9974V6.14624H140.709C142.107 6.14624 143.272 6.39551 144.204 6.89405C145.136 7.38176 145.835 8.06996 146.301 8.95866C146.767 9.84737 147 10.8878 147 12.08C147 13.3805 146.74 14.4697 146.22 15.3476C145.71 16.2255 144.984 16.8866 144.041 17.3309C143.098 17.7753 141.987 17.9974 140.709 17.9974H134.856ZM138.124 15.4776H140.058C141.348 15.4776 142.275 15.1742 142.838 14.5673C143.402 13.9603 143.684 13.1096 143.684 12.0149C143.684 11.1913 143.532 10.5356 143.228 10.0479C142.925 9.54933 142.497 9.1971 141.944 8.99118C141.402 8.77442 140.774 8.66604 140.058 8.66604H138.124V15.4776Z" fill="white"/>
<path d="M121.95 17.9974V6.14624H132.16V8.73107H125.234V10.8282H131.347V13.2342H125.234V15.4126H132.208V17.9974H121.95Z" fill="white"/>
<path d="M112.419 17.9974V8.74733H108.663V6.14624H119.523V8.74733H115.686V17.9974H112.419Z" fill="white"/>
<path d="M95.1326 17.9974L100.042 6.14624H104.301L109.243 17.9974H105.667L104.838 15.8028H99.4894L98.6603 17.9974H95.1326ZM100.384 13.3805H103.96L102.708 10.1454L102.221 8.77984H102.107L101.652 10.1292L100.384 13.3805Z" fill="white"/>
<path d="M88.6074 17.9974V8.74733H84.8521V6.14624H95.7116V8.74733H91.875V17.9974H88.6074Z" fill="white"/>
<path d="M77.4518 18.1601C76.1187 18.1601 75.0187 17.9921 74.1517 17.6561C73.2955 17.3093 72.656 16.8433 72.2334 16.258C71.8215 15.662 71.6102 14.9738 71.5993 14.1934H75.0133C75.0241 14.7136 75.2409 15.1309 75.6635 15.4452C76.0971 15.7595 76.7365 15.9166 77.5819 15.9166C78.2972 15.9166 78.839 15.8083 79.2075 15.5915C79.5869 15.3748 79.7765 15.0659 79.7765 14.6649C79.7765 14.3397 79.6898 14.0959 79.5164 13.9333C79.3538 13.7707 79.0775 13.6515 78.6873 13.5757C78.2971 13.4998 77.7661 13.4239 77.0941 13.3481C75.9237 13.2072 74.9537 13.0067 74.1842 12.7466C73.4147 12.4865 72.8403 12.118 72.461 11.6411C72.0816 11.1642 71.892 10.5411 71.892 9.77158C71.892 8.56857 72.3797 7.64194 73.3551 6.99166C74.3413 6.33055 75.6906 6 77.403 6C78.9528 6 80.2046 6.3143 81.1583 6.94289C82.1121 7.56065 82.6377 8.44936 82.7353 9.60901H79.4189C79.3647 9.1213 79.1425 8.76907 78.7523 8.55232C78.373 8.32472 77.8799 8.21092 77.273 8.21092C76.6335 8.21092 76.135 8.3193 75.7773 8.53606C75.4305 8.74198 75.2571 9.02376 75.2571 9.38141C75.2571 9.67404 75.333 9.89621 75.4847 10.0479C75.6365 10.1888 75.9074 10.3026 76.2976 10.3893C76.6877 10.476 77.2459 10.5573 77.972 10.6332C79.175 10.7741 80.1558 10.9746 80.9145 11.2347C81.684 11.484 82.2475 11.8579 82.6052 12.3564C82.9737 12.8549 83.1579 13.5377 83.1579 14.4048C83.1579 15.5753 82.6648 16.4965 81.6786 17.1684C80.7032 17.8295 79.2942 18.1601 77.4518 18.1601Z" fill="white"/>
<path d="M57.9457 17.9974V6.14624H65.0499C65.9061 6.14624 66.6864 6.26004 67.3909 6.48763C68.0953 6.70439 68.6535 7.07288 69.0653 7.59309C69.488 8.11331 69.6993 8.82319 69.6993 9.72273C69.6993 10.4272 69.5097 11.045 69.1303 11.576C68.751 12.0962 68.2146 12.443 67.5209 12.6164V12.7302C68.1495 12.8386 68.6156 13.0825 68.919 13.4618C69.2333 13.8411 69.3905 14.3722 69.3905 15.055V16.5668C69.3905 16.7944 69.3959 17.0329 69.4067 17.2821C69.4284 17.5206 69.4934 17.759 69.6018 17.9974H66.3017C66.1716 17.7265 66.1066 17.255 66.1066 16.5831V15.4939C66.1066 15.0387 65.9928 14.6811 65.7652 14.4209C65.5484 14.15 65.1095 14.0145 64.4484 14.0145H61.2295V17.9974H57.9457ZM61.2295 11.6735H64.3996C65.1583 11.6735 65.6731 11.5272 65.944 11.2346C66.2258 10.942 66.3667 10.5573 66.3667 10.0804C66.3667 9.51682 66.1825 9.13207 65.814 8.92615C65.4563 8.72023 64.9849 8.61727 64.3996 8.61727H61.2295V11.6735Z" fill="white"/>
<path d="M45.0399 17.9974V6.14624H55.2492V8.73107H48.3238V10.8282H54.4364V13.2342H48.3238V15.4126H55.298V17.9974H45.0399Z" fill="white"/>
<path d="M30.2926 17.9974V6.14624H36.1451C37.5432 6.14624 38.7082 6.39551 39.6403 6.89405C40.5723 7.38176 41.2714 8.06996 41.7374 8.95866C42.2034 9.84737 42.4365 10.8878 42.4365 12.08C42.4365 13.3805 42.1763 14.4697 41.6561 15.3476C41.1467 16.2255 40.4206 16.8866 39.4777 17.3309C38.5348 17.7753 37.4239 17.9974 36.1451 17.9974H30.2926ZM33.5602 15.4776H35.4948C36.7845 15.4776 37.7111 15.1742 38.2747 14.5673C38.8383 13.9603 39.1201 13.1096 39.1201 12.0149C39.1201 11.1913 38.9683 10.5356 38.6649 10.0479C38.3614 9.54933 37.9333 9.1971 37.3806 8.99118C36.8387 8.77442 36.2101 8.66604 35.4948 8.66604H33.5602V15.4776Z" fill="white"/>
<path d="M14.6563 17.9974V6.14624H18.6229L23.8901 13.7382H24.0039L23.9064 10.2755V6.14624H27.1577V17.9974H23.2561L18.0052 10.5031H17.8589L17.9726 13.8357V17.9974H14.6563Z" fill="white"/>
<path d="M5.85245 18.16C4.67112 18.16 3.64152 17.9812 2.76366 17.6235C1.88579 17.255 1.203 16.6806 0.7153 15.9003C0.238434 15.12 1.04901e-06 14.1121 1.04901e-06 12.8766V6.14624H3.2351V12.8766C3.2351 13.3968 3.31097 13.852 3.4627 14.2421C3.62527 14.6323 3.89621 14.9357 4.27554 15.1525C4.6657 15.3693 5.19134 15.4776 5.85245 15.4776C6.66529 15.4776 7.30472 15.288 7.77075 14.9087C8.23678 14.5293 8.46979 13.852 8.46979 12.8766V6.14624H11.7211V12.8766C11.7211 13.9603 11.5152 14.8978 11.1034 15.689C10.6916 16.4801 10.0521 17.0925 9.18509 17.526C8.31806 17.9487 7.20718 18.16 5.85245 18.16Z" fill="white"/>
</svg>
